<?xml version="1.0" encoding="utf-8"?>
<!-- Generator: Adobe Illustrator 28.0.0, SVG Export Plug-In . SVG Version: 6.00 Build 0)  -->
<svg version="1.1" id="图层_1" xmlns="http://www.w3.org/2000/svg" xmlns:xlink="http://www.w3.org/1999/xlink" x="0px" y="0px"
	 viewBox="0 0 1024 1024" style="enable-background:new 0 0 1024 1024;" xml:space="preserve">
<g>
	<path d="M939.98,20c35.3,0,64.02,28.72,64.02,64.02v855.97c0,35.3-28.72,64.02-64.02,64.02H84.02C48.72,1004,20,975.28,20,939.98
		V84.02C20,48.72,48.72,20,84.02,20H939.98 M939.98,0H84.02C37.62,0,0,37.62,0,84.02v855.97c0,46.4,37.62,84.02,84.02,84.02h855.97
		c46.4,0,84.02-37.62,84.02-84.02V84.02C1024,37.62,986.38,0,939.98,0L939.98,0z"/>
</g>
</svg>
