<?xml version="1.0" encoding="utf-8"?>
<!-- Generator: Adobe Illustrator 28.0.0, SVG Export Plug-In . SVG Version: 6.00 Build 0)  -->
<svg version="1.1" id="图层_1" xmlns="http://www.w3.org/2000/svg" xmlns:xlink="http://www.w3.org/1999/xlink" x="0px" y="0px"
	 viewBox="0 0 1024 1024" style="enable-background:new 0 0 1024 1024;" xml:space="preserve">
<style type="text/css">
	.st0{font-family:'LXGWWenKaiMono-Light';}
	.st1{font-size:259.1934px;}
	.st2{fill:none;stroke:#000000;stroke-width:20;stroke-miterlimit:10;}
	.st3{font-size:100px;}
</style>
<g>
	<path d="M939.98,20c35.3,0,64.02,28.72,64.02,64.02v855.97c0,35.3-28.72,64.02-64.02,64.02H84.02C48.72,1004,20,975.28,20,939.98
		V84.02C20,48.72,48.72,20,84.02,20H939.98 M939.98,0H84.02C37.62,0,0,37.62,0,84.02v855.97c0,46.4,37.62,84.02,84.02,84.02h855.97
		c46.4,0,84.02-37.62,84.02-84.02V84.02C1024,37.62,986.38,0,939.98,0L939.98,0z"/>
</g>
<text transform="matrix(1 0 0 1 82.334 305.166)" class="st0 st1">fn</text>
<path class="st2" d="M872.14,945H428.86c-23.12,0-41.86-18.74-41.86-41.86V346.86c0-23.12,18.74-41.86,41.86-41.86h443.27
	c23.12,0,41.86,18.74,41.86,41.86v556.27C914,926.26,895.26,945,872.14,945z"/>
<path d="M853.86,649H451.14c-3.39,0-6.14-2.75-6.14-6.14v-7.71c0-3.39,2.75-6.14,6.14-6.14h402.71c3.39,0,6.14,2.75,6.14,6.14v7.71
	C860,646.25,857.25,649,853.86,649z"/>
<path d="M853.86,723H451.14c-3.39,0-6.14-2.75-6.14-6.14v-7.71c0-3.39,2.75-6.14,6.14-6.14h402.71c3.39,0,6.14,2.75,6.14,6.14v7.71
	C860,720.25,857.25,723,853.86,723z"/>
<path d="M851.86,797H449.14c-3.39,0-6.14-2.75-6.14-6.14v-7.71c0-3.39,2.75-6.14,6.14-6.14h402.71c3.39,0,6.14,2.75,6.14,6.14v7.71
	C858,794.25,855.25,797,851.86,797z"/>
<path d="M851.86,871H449.14c-3.39,0-6.14-2.75-6.14-6.14v-7.71c0-3.39,2.75-6.14,6.14-6.14h402.71c3.39,0,6.14,2.75,6.14,6.14v7.71
	C858,868.25,855.25,871,851.86,871z"/>
<path d="M656.86,575H454.14c-3.39,0-6.14-2.75-6.14-6.14v-7.71c0-3.39,2.75-6.14,6.14-6.14h202.71c3.39,0,6.14,2.75,6.14,6.14v7.71
	C663,572.25,660.25,575,656.86,575z"/>
<path d="M656.86,501H454.14c-3.39,0-6.14-2.75-6.14-6.14v-7.71c0-3.39,2.75-6.14,6.14-6.14h202.71c3.39,0,6.14,2.75,6.14,6.14v7.71
	C663,498.25,660.25,501,656.86,501z"/>
<text transform="matrix(1 0 0 1 721.0674 454.8818)" class="st0 st3">App</text>
</svg>
