<?xml version="1.0" encoding="utf-8"?>
<!-- Generator: Adobe Illustrator 28.0.0, SVG Export Plug-In . SVG Version: 6.00 Build 0)  -->
<svg version="1.1" id="图层_1" xmlns="http://www.w3.org/2000/svg" xmlns:xlink="http://www.w3.org/1999/xlink" x="0px" y="0px"
	 viewBox="0 0 1024 1024" style="enable-background:new 0 0 1024 1024;" xml:space="preserve">
<style type="text/css">
	.st0{fill:none;stroke:#000000;stroke-width:5;stroke-miterlimit:10;}
	.st1{font-family:'LXGWWenKaiMono-Light';}
	.st2{font-size:259.1934px;}
	.st3{fill:none;stroke:#000000;stroke-width:20;stroke-miterlimit:10;}
	.st4{font-size:100px;}
</style>
<path class="st0" d="M863,1014H161c-83.4,0-151-67.6-151-151V161C10,77.6,77.6,10,161,10h702c83.4,0,151,67.6,151,151v702
	C1014,946.4,946.4,1014,863,1014z"/>
<text transform="matrix(1 0 0 1 82.334 305.166)" class="st1 st2">fn</text>
<path class="st3" d="M872.1,945H428.9c-23.1,0-41.9-18.7-41.9-41.9V346.9c0-23.1,18.7-41.9,41.9-41.9h443.3
	c23.1,0,41.9,18.7,41.9,41.9v556.3C914,926.3,895.3,945,872.1,945z"/>
<path d="M853.9,649H451.1c-3.4,0-6.1-2.8-6.1-6.1v-7.7c0-3.4,2.8-6.1,6.1-6.1h402.7c3.4,0,6.1,2.8,6.1,6.1v7.7
	C860,646.2,857.2,649,853.9,649z"/>
<path d="M853.9,723H451.1c-3.4,0-6.1-2.8-6.1-6.1v-7.7c0-3.4,2.8-6.1,6.1-6.1h402.7c3.4,0,6.1,2.8,6.1,6.1v7.7
	C860,720.2,857.2,723,853.9,723z"/>
<path d="M851.9,797H449.1c-3.4,0-6.1-2.8-6.1-6.1v-7.7c0-3.4,2.8-6.1,6.1-6.1h402.7c3.4,0,6.1,2.8,6.1,6.1v7.7
	C858,794.2,855.2,797,851.9,797z"/>
<path d="M851.9,871H449.1c-3.4,0-6.1-2.8-6.1-6.1v-7.7c0-3.4,2.8-6.1,6.1-6.1h402.7c3.4,0,6.1,2.8,6.1,6.1v7.7
	C858,868.2,855.2,871,851.9,871z"/>
<path d="M656.9,575H454.1c-3.4,0-6.1-2.8-6.1-6.1v-7.7c0-3.4,2.8-6.1,6.1-6.1h202.7c3.4,0,6.1,2.8,6.1,6.1v7.7
	C663,572.2,660.2,575,656.9,575z"/>
<path d="M656.9,501H454.1c-3.4,0-6.1-2.8-6.1-6.1v-7.7c0-3.4,2.8-6.1,6.1-6.1h202.7c3.4,0,6.1,2.8,6.1,6.1v7.7
	C663,498.2,660.2,501,656.9,501z"/>
<text transform="matrix(1 0 0 1 721.0674 454.8818)" class="st1 st4">App</text>
</svg>
